<svg width="100" height="100" viewBox="0 0 100 100" fill="none" xmlns="http://www.w3.org/2000/svg">
<path d="M100 50C100 77.6143 77.6143 100 50 100C33.1449 100 18.2367 91.6592 9.17969 78.8797H9.17773C6.87578 75.6307 4.95117 72.0961 3.46953 68.3369C2.72051 66.4369 2.08379 64.4818 1.56953 62.4758V62.4738C0.544922 58.4857 0 54.3061 0 50C0 22.3857 22.3857 0 50 0C65.4652 0 79.2898 7.02031 88.4592 18.049C91.7715 22.0287 94.4756 26.5307 96.4307 31.4123C98.7326 37.1592 100 43.4326 100 50Z" fill="white"/>
<path d="M28.4988 57.5858C28.4988 55.3713 36.901 54.1287 40.8137 53.8269L41.1879 54.043C39.6849 54.3167 33.654 55.3802 33.654 56.7678C33.654 58.2781 42.9038 59.2678 48.2721 59.2678C57.3902 59.2678 63.5885 57.8877 65.2555 57.4336L67.5883 58.7902C65.9907 59.5727 59.1343 61.6214 48.2721 61.6214C36.2013 61.6213 28.4988 59.2603 28.4988 57.5858ZM46.8963 88.68C42.1183 88.7214 36.2855 88.3264 31.3788 87.5025L30.9232 87.7628C35.8121 89.1963 42.6182 90.0616 50.096 89.9966C64.7821 89.8694 76.6888 86.2273 76.924 81.8444L76.7554 81.7453C75.7702 82.9464 69.4182 88.4833 46.8963 88.68ZM48.1463 85.8577C60.1668 85.7527 73.6149 83.4006 73.5808 79.4466C73.5735 78.7291 73.1074 78.238 72.7021 77.9422L72.5038 78.0561C71.3929 81.1181 62.0026 83.3814 48.1269 83.5013C39.1744 83.5797 26.7722 81.4347 26.7501 78.9569C26.7293 76.4717 32.6257 75.1064 32.6257 75.1064L32.2085 74.8683C28.2574 75.4127 20.9765 77.3047 21.0001 80.0369C21.0344 83.9863 37.7679 85.9478 48.1463 85.8577ZM75.2259 58.6436C74.9834 63.2811 70.6993 66.1686 66.4168 68.608L66.8044 68.8328C71.374 67.5459 79.5276 63.8033 78.853 58.0489C78.5173 55.1806 75.8944 53.1303 72.4758 53.1303C71.4109 53.1303 70.4641 53.3181 69.6963 53.5519L69.6934 53.5592L69.5305 53.9675C72.5898 53.3684 75.3841 55.6022 75.2259 58.6436ZM39.9172 72.4228C38.5222 72.7009 35.4824 73.3992 35.4824 74.8769C35.4824 76.9242 41.9852 78.4938 48.2648 78.4938C56.9052 78.4938 60.4451 76.2705 60.6048 76.155L57.0116 74.0766C55.4835 74.4405 52.9096 75.0114 48.2737 75.0114C43.1007 75.0114 39.7294 74.1269 39.7294 73.1564C39.7294 72.9508 39.8582 72.7053 40.0977 72.5278L39.9172 72.4228ZM61.1432 65.5206C59.1565 66.0828 54.6802 66.9998 48.2794 66.9998C41.9985 66.9998 36.8669 65.9259 36.8505 64.6597C36.8387 63.8164 37.8579 63.4497 37.8579 63.4497L37.6774 63.3447C34.6687 63.8758 31.8757 64.6983 31.8905 65.9289C31.9187 68.1611 40.4569 69.8372 48.2676 69.8372C54.908 69.8372 61.2851 68.7233 64.1623 67.2633L61.1432 65.5206Z" fill="#427595"/>
<path d="M59.4309 15.7219C59.4309 28.0309 42.5628 32.7408 42.5628 41.4922C42.5628 47.6356 46.6367 51.4877 48.8911 53.9239L48.7077 54.0305C45.8616 52.2494 38.375 47.7761 38.375 40.3872C38.375 30.0131 57.7505 25.0561 57.7505 13.2738C57.7505 11.8241 57.5359 10.7117 57.3852 10.1125L57.5805 10C58.1942 10.7708 59.4309 12.6997 59.4309 15.7219ZM64.9783 26.6225L64.7756 26.5072C61.1056 27.7364 49.8039 32.1978 49.8039 40.5144C49.8039 45.2169 54.397 47.8234 54.397 52.2331C54.397 53.807 53.508 55.2819 52.7861 56.1634L53.1484 56.3734C55.0611 55.1309 58.4456 52.4402 58.4456 48.9669C58.4456 46.0247 54.3747 42.4892 54.3747 38.7081C54.3748 32.7497 62.2297 28.0752 64.9783 26.6225Z" fill="#DE8E2F"/>
</svg>
