<svg width="100" height="100" viewBox="0 0 100 100" fill="none" xmlns="http://www.w3.org/2000/svg">
<path d="M100 50C100 53.0244 99.7307 55.9857 99.2164 58.8611C95.0348 82.249 74.5898 100 50 100C31.4734 100 15.3 89.9244 6.66328 74.9531C4.55508 71.3021 2.89805 67.3613 1.76328 63.2041C0.612305 58.9981 0 54.5693 0 50C0 22.3857 22.3857 0 50 0C72.7918 0 92.0203 15.249 98.0428 36.102C99.3164 40.5143 100 45.1775 100 50Z" fill="#777BB3"/>
<path d="M25.4238 34.8123H7.00957L1.7627 63.2041C2.89746 67.3613 4.55449 71.3021 6.6627 74.9531H8.3709L10.4035 63.9572H20.5219C32.8422 63.9572 36.1545 52.896 36.9484 47.4632C37.7443 42.0326 33.7709 34.8123 25.4238 34.8123ZM28.0953 48.3794C27.6443 51.4591 25.3687 57.7304 18.3852 57.7304H11.5545L14.6076 41.206H21.5607C28.3383 41.206 28.5463 45.3 28.0953 48.3794Z" fill="#FAFAFA"/>
<path d="M98.0414 36.1019C96.4762 35.2937 94.6107 34.8121 92.4557 34.8121H74.0414L66.623 74.9531H75.4025L77.4352 63.9572H87.5535C93.0332 63.9572 96.7311 61.7695 99.2146 58.8613C99.7293 55.9857 99.9986 53.0244 99.9986 50C99.9986 45.1775 99.315 40.5142 98.0414 36.1019ZM95.1272 48.3795C94.6762 51.4591 92.4006 57.7304 85.4148 57.7304H78.5863L81.6395 41.206H88.5926C95.3701 41.206 95.5781 45.3 95.1272 48.3795Z" fill="#FAFAFA"/>
<path d="M60.398 34.9451C56.8248 34.9451 52.0574 34.9451 49.7346 34.9451L51.7361 24.1148H42.9928L35.5742 64.2547H44.3176L48.5838 41.1715C50.16 41.1715 52.2537 41.1715 54.1717 41.1715C57.8809 41.1715 60.398 41.9664 59.868 45.4107C59.3381 48.8551 56.2912 64.0896 56.2912 64.0896H65.167C65.167 64.0896 68.6113 47.133 69.1412 42.3636C69.6713 37.5945 65.2996 34.9451 60.398 34.9451Z" fill="#FAFAFA"/>
</svg>
